# xmcd
#
# Track frame offsets:
#	150
#	15633
#	32698
#	49015
#	63890
#	77913
#	98230
#	113925
#	131038
#	153820
#	168515
#	194838
#	210883
#	230205
#	248865
#	287783
#
# Disc length: 4078 seconds
#
# Revision: 1
# Processed by: cddbd v1.5PL3 Copyright (c) Steve Scherf et al.
# Submitted via: CDex 1.50Beta5
#
DISCID=de0fec10
DTITLE=幸田聡子 - ソング・フォー・ヴァイオリン 幸田聡子ベスト・セレクション
DYEAR=2000
DGENRE=Pop
TTITLE0=ロマンス〜オペラ「パラトン先生」より
TTITLE1=パリ祭
TTITLE2=私は街の子
TTITLE3=北帰行
TTITLE4=エストレリータ
TTITLE5=いい日旅立ち
TTITLE6=津軽海峡・冬景色
TTITLE7=アヴェ・マリア
TTITLE8=悲しい酒
TTITLE9=北の宿から
TTITLE10=ナイトクラブ1960〜タンゴの歴史より
TTITLE11=夜霧よ今夜も有難う
TTITLE12=枯葉
TTITLE13=精霊流し
TTITLE14=ツィゴイネルワイゼン
TTITLE15=川の流れのように
EXTD=
EXTT0=
EXTT1=
EXTT2=
EXTT3=
EXTT4=
EXTT5=
EXTT6=
EXTT7=
EXTT8=
EXTT9=
EXTT10=
EXTT11=
EXTT12=
EXTT13=
EXTT14=
EXTT15=
PLAYORDER=
